PathFileType	4	(X/Y/Z)	D:\TRACE\spot_10-12-23\spot_body_motion_2_1-platform.trc
DataRate	CameraRate	NumFrames	NumMarkers	Units	OrigDataRate	OrigDataStartFrame	OrigNumFrames
100.00	100.00	      23	5	mm	100.00	5251	      7000
Frame#	Time	Left_Front			Right_Front			Left_Aft			Right_Aft			Post			
		X1	Y1	Z1	X2	Y2	Z2	X3	Y3	Z3	X4	Y4	Z4	X5	Y5	Z5	

5251	52.500	-818.99121	-55.40715	-653.41302	753.43268	-50.58601	-646.74481	-736.24927	46.56710	479.94315	680.95074	58.60277	565.56500	-35.74250	649.66510	-1041.03235	
5252	52.510	-818.29718	-55.61081	-653.38184	754.36157	-50.47014	-646.58057	-735.37073	46.65348	479.97992	681.74500	58.64265	565.57678	-34.90230	649.55988	-1041.31653	
5253	52.520	-817.51923	-55.50731	-653.41797	754.97998	-50.38373	-646.53015	-734.84052	46.71318	479.91562	682.48969	58.69847	565.64380	-34.28313	649.45740	-1041.33472	
5254	52.530	-816.71515	-55.75417	-653.48755	755.66217	-50.52727	-646.57825	-734.27686	46.68345	479.84784	682.94849	58.80140	565.72205	-33.74002	649.42603	-1041.37561	
5255	52.540	-815.99469	-55.89133	-653.47125	756.34015	-50.63692	-646.76868	-733.42853	46.76639	479.90753	683.66119	58.82117	565.64844	-33.01484	649.51050	-1041.33142	
5256	52.550	-815.35876	-55.52369	-653.48236	757.08551	-50.63941	-646.64673	-732.63037	46.78292	479.86404	684.64941	58.85350	565.65515	-31.92651	649.52612	-1041.30957	
5257	52.560	-814.53497	-55.52633	-653.38171	757.81488	-50.60739	-646.51166	-732.11725	46.68411	479.83163	685.52838	58.73779	565.75769	-31.04572	649.69769	-1041.29712	
5258	52.570	-813.73621	-55.30001	-653.43237	758.70050	-50.41853	-646.62573	-731.07941	46.54246	480.02185	686.18457	58.62808	565.84076	-30.51954	649.76471	-1041.11389	
5259	52.580	-812.88269	-55.13832	-653.44916	759.41437	-50.16840	-646.74335	-730.21222	46.40837	479.90250	687.01410	58.52070	565.82501	-29.73750	649.94269	-1040.78552	
5260	52.590	-812.15869	-54.78033	-653.45319	760.36890	-49.86332	-646.52832	-729.41168	46.29811	479.99686	687.82526	58.21416	565.92963	-28.82508	650.41278	-1040.54602	
5261	52.600	-811.35632	-54.27713	-653.31464	761.32300	-49.75707	-646.38232	-728.52020	46.10219	480.24707	688.65698	58.03962	566.07544	-27.92691	650.85846	-1040.21191	
5262	52.610	-810.36053	-54.18229	-653.25983	761.96997	-49.55219	-646.34583	-727.74829	45.86609	480.23120	689.44165	57.87209	566.08453	-27.25442	651.35474	-1039.71777	
5263	52.620	-809.41663	-53.98592	-653.31342	762.91089	-49.01505	-646.51324	-726.85901	45.71510	480.29245	690.42297	57.61588	566.17834	-26.27186	651.99542	-1039.19141	
5264	52.630	-808.78485	-53.35054	-653.15796	763.77606	-48.54095	-646.39563	-725.98364	45.47966	480.47186	691.39111	57.27962	566.26135	-25.61246	652.49072	-1038.83228	
5265	52.640	-807.94312	-52.99518	-653.12360	764.52374	-48.10936	-646.22980	-725.20490	45.12587	480.56232	692.09210	56.91932	566.38757	-24.57093	653.20123	-1038.31128	
5266	52.650	-807.09241	-52.58148	-652.87201	765.41888	-47.78612	-646.47272	-724.20758	44.75811	480.75070	692.97235	56.61699	566.44269	-23.56260	654.13489	-1037.60107	
5267	52.660	-805.80945	-52.23626	-653.07910	766.33954	-47.15388	-646.33459	-723.20129	44.46033	480.76981	694.26520	56.28033	566.65820	-22.86492	654.72107	-1037.05762	
5268	52.670	-805.23169	-51.32536	-652.89368	767.55072	-46.61988	-645.95862	-722.27557	44.12396	480.91800	695.06915	55.84932	566.93176	-22.01785	655.68176	-1036.28101	
5269	52.680	-804.11743	-50.91884	-652.85046	768.59174	-46.05990	-645.84839	-721.25037	43.72820	481.01633	695.78363	55.30461	567.04370	-20.69339	656.57666	-1035.64014	
5270	52.690	-803.14374	-50.33178	-652.76031	769.38440	-45.59847	-645.91284	-720.29266	43.27530	481.25876	697.00403	55.02773	567.25769	-19.83090	657.34509	-1034.74988	
5271	52.700	-802.12347	-49.95020	-652.63159	770.39771	-45.04951	-645.77734	-719.40149	42.82364	481.58755	697.90430	54.59103	567.43378	-18.83085	658.39703	-1034.05676	
5272	52.710	-801.26990	-49.00359	-652.52032	771.22711	-44.13651	-645.63171	-718.41992	42.42659	481.77139	698.80841	54.20809	567.50891	-18.11159	659.23480	-1033.16467	
5273	52.720	-800.19165	-48.54570	-652.48474	772.14111	-43.64626	-645.62213	-717.51843	42.20212	481.80884	699.98877	53.63597	567.71497	-16.99385	660.47357	-1032.22217	
